<?xml version="1.0" encoding="utf-8"?>
<!DOCTYPE svg PUBLIC "-//W3C//DTD SVG 1.1//EN" "http://www.w3.org/Graphics/SVG/1.1/DTD/svg11.dtd">
<!-- Generator: PTC Arbortext IsoDraw 7.3 -->
<svg id="Background" width="100%" height="100%" viewBox="0 0 180 254.57"
 xmlns="http://www.w3.org/2000/svg" xmlns:xlink="http://www.w3.org/1999/xlink"
 xmlns:itedo="http://www.itedo.com/svgfilter/1.0" xmlns:extra="http://www.itedo.com/svgfilter/1.0/extra"
 xmlns:_DEFAULT_DTD_="http://www.itedo.com/svgfilter/1.0/DTD/_DEFAULT_DTD_"
 fill-rule="evenodd" clip-rule="evenodd" stroke="#000000" stroke-linecap="round" fill="none" xml:space="preserve"
>
<path stroke="none" fill="#FFFFFF" d="M0 0L0 254.57 180 254.57 180 0 0 0z"/>
<line stroke-width="0.25" x1="25.897" y1="72.283" x2="45.933" y2="72.283"/>
<line stroke-width="0.25" x1="25.897" y1="88.703" x2="45.942" y2="88.703"/>
<line stroke-width="0.25" x1="25.897" y1="105.125" x2="45.942" y2="105.125"/>
<line stroke-width="0.25" x1="25.897" y1="72.283" x2="25.897" y2="105.125"/>
<line stroke-width="0.25" x1="45.942" y1="72.233" x2="45.942" y2="105.125"/>
<line stroke-width="0.25" x1="103.331" y1="72.665" x2="123.367" y2="72.665"/>
<line stroke-width="0.25" x1="103.331" y1="89.084" x2="123.376" y2="89.084"/>
<line stroke-width="0.25" x1="103.331" y1="105.506" x2="123.376" y2="105.506"/>
<line stroke-width="0.25" x1="103.331" y1="72.665" x2="103.331" y2="105.506"/>
<line stroke-width="0.25" x1="123.376" y1="72.615" x2="123.376" y2="105.506"/>
<polyline stroke-width="0.7" points="35.915 72.283 35.915 60.609 113.314 60.609 113.314 72.665"/>
<text x="108.736" y="83.114" stroke="none" fill="#000000" font-family="'Helvetica'" font-size="4.232">C477</text>
<line stroke-width="0.25" x1="72.5" y1="60.609" x2="75.17" y2="54.124"/>
<text x="75.17" y="54.124" stroke="none" fill="#000000" font-family="'Helvetica'" font-size="4.232" id="HS_AUTOID_19" itedo:apstype="grobject"><desc>1</desc>1</text>
<text x="33.21" y="81.587" stroke="none" fill="#000000" font-family="'Helvetica'" font-size="4.232">T39</text>
<g>
 <path stroke-width="0.13" d="M29.141 94.513C29.359 94.605 29.826 93.998 30.184 93.156C30.536 92.329 30.652 91.584 30.449 91.471"/>
 <path stroke-width="0.13" d="M29.129 94.507C29.134 94.51 29.138 94.512 29.141 94.513"/>
</g>
<g>
 <path stroke-width="0.13" d="M28.995 94.45C29.213 94.543 29.678 93.936 30.036 93.094C30.394 92.253 30.509 91.495 30.291 91.403"/>
 <path stroke-width="0.25" d="M30.291 91.403C30.257 91.388 30.216 91.391 30.175 91.408"/>
 <path stroke-width="0.25" d="M28.917 94.364C28.937 94.409 28.964 94.438 28.995 94.45"/>
</g>
<line stroke-width="0.25" x1="30.437" y1="91.465" x2="30.291" y2="91.403"/>
<line stroke-width="0.25" x1="30.175" y1="91.408" x2="30.089" y2="91.441"/>
<line stroke-width="0.25" x1="28.882" y1="94.278" x2="28.917" y2="94.364"/>
<g>
 <path stroke-width="0.13" d="M28.955 94.361C29.164 94.45 29.612 93.867 29.957 93.06C30.3 92.251 30.408 91.525 30.199 91.436C30.167 91.423 30.129 91.424 30.088 91.441"/>
 <path stroke-width="0.25" d="M30.088 91.441C29.847 91.534 29.481 92.076 29.199 92.737C28.91 93.42 28.786 94.043 28.882 94.278"/>
 <path stroke-width="0.13" d="M28.882 94.278C28.9 94.322 28.926 94.35 28.955 94.361"/>
</g>
<g>
 <path stroke-width="0.25" d="M29.315 94.739C29.628 94.873 30.196 94.239 30.583 93.326C30.972 92.414 31.033 91.566 30.722 91.433C30.643 91.4 30.548 91.415 30.449 91.468"/>
 <path stroke-width="0.25" d="M29.15 94.519C29.185 94.638 29.243 94.712 29.315 94.739"/>
</g>
<g>
 <path stroke-width="0.13" d="M29.614 94.713C29.832 94.807 30.298 94.2 30.657 93.358C31.013 92.516 31.128 91.759 30.91 91.667"/>
 <path stroke-width="0.25" d="M30.91 91.667C30.902 91.662 30.891 91.659 30.884 91.659"/>
 <path stroke-width="0.25" d="M29.588 94.697C29.596 94.704 29.605 94.71 29.614 94.713"/>
</g>
<g>
 <path stroke-width="0.13" d="M29.794 94.79C30.012 94.882 30.478 94.275 30.835 93.435C31.193 92.593 31.307 91.835 31.089 91.742"/>
</g>
<line stroke-width="0.25" x1="31.089" y1="91.742" x2="30.91" y2="91.667"/>
<line stroke-width="0.25" x1="29.794" y1="94.79" x2="29.614" y2="94.713"/>
<g>
 <path stroke-width="0.25" d="M29.727 92.691C29.771 92.71 29.865 92.587 29.937 92.417C30.01 92.245 30.033 92.093 29.989 92.073"/>
 <path stroke-width="0.13" d="M29.989 92.073C29.946 92.055 29.85 92.177 29.777 92.349C29.705 92.519 29.682 92.673 29.727 92.691"/>
</g>
<g>
 <path stroke-width="0.25" d="M29.248 93.286C29.292 93.304 29.387 93.18 29.458 93.01C29.532 92.84 29.554 92.686 29.51 92.667"/>
 <path stroke-width="0.13" d="M29.51 92.667C29.466 92.649 29.371 92.772 29.298 92.942C29.227 93.112 29.204 93.266 29.248 93.286"/>
</g>
<g>
 <path stroke-width="0.25" d="M29.399 93.671C29.443 93.691 29.538 93.566 29.611 93.397C29.684 93.225 29.707 93.072 29.661 93.054"/>
 <path stroke-width="0.13" d="M29.661 93.054C29.617 93.034 29.524 93.158 29.451 93.328C29.378 93.498 29.355 93.653 29.399 93.671"/>
</g>
<g>
 <path stroke-width="0.13" d="M29.725 94.95C29.966 95.052 30.481 94.382 30.878 93.451C31.272 92.522 31.399 91.685 31.158 91.582"/>
 <path stroke-width="0.25" d="M31.158 91.582C31.091 91.554 31.001 91.585 30.903 91.664"/>
 <path stroke-width="0.25" d="M29.608 94.712C29.621 94.847 29.664 94.927 29.725 94.95"/>
</g>
<g>
 <path stroke-width="0.13" d="M30.077 95.099C30.318 95.203 30.833 94.531 31.23 93.602C31.625 92.671 31.751 91.834 31.51 91.733"/>
</g>
<line stroke-width="0.25" x1="31.51" y1="91.733" x2="31.158" y2="91.582"/>
<line stroke-width="0.25" x1="29.725" y1="94.95" x2="30.077" y2="95.099"/>
<g>
 <path stroke-width="0.13" d="M31.989 91.438C32.014 91.364 32.008 91.302 31.978 91.29"/>
 <path stroke-width="0.25" d="M31.978 91.29C31.971 91.287 31.963 91.287 31.954 91.29"/>
</g>
<line stroke-width="0.25" x1="31.096" y1="91.566" x2="31.725" y2="91.364"/>
<line stroke-width="0.25" x1="31.865" y1="91.319" x2="31.954" y2="91.29"/>
<g>
 <polyline stroke-width="0.13" points="31.096 91.566 31.089 91.471"/>
 <polyline stroke-width="0.25" points="31.089 91.471 31.016 91.512 30.957 91.626"/>
</g>
<line stroke-width="0.25" x1="31.219" y1="91.527" x2="31.089" y2="91.471"/>
<line stroke-width="0.25" x1="32.503" y1="91.513" x2="31.978" y2="91.29"/>
<g>
 <path stroke-width="0.25" d="M32.514 91.661C32.537 91.587 32.533 91.525 32.503 91.513"/>
</g>
<line stroke-width="0.25" x1="32.262" y1="92.424" x2="32.514" y2="91.662"/>
<g>
 <polyline stroke-width="0.13" points="31.865 91.319 31.858 91.209"/>
 <polyline stroke-width="0.25" points="31.858 91.209 31.785 91.25 31.725 91.364"/>
</g>
<line stroke-width="0.25" x1="32.383" y1="91.433" x2="31.858" y2="91.209"/>
<line stroke-width="0.25" x1="32.384" y1="91.462" x2="32.383" y2="91.433"/>
<g>
 <path stroke-width="0.13" d="M31.911 92.192C31.937 92.117 31.931 92.046 31.899 92.034"/>
 <path stroke-width="0.25" d="M31.899 92.034C31.893 92.033 31.885 92.033 31.879 92.036"/>
</g>
<g>
 <path stroke-width="0.13" d="M31.809 91.983C31.798 92.018 31.8 92.046 31.815 92.052"/>
 <path stroke-width="0.25" d="M31.815 92.052C31.818 92.054 31.821 92.054 31.824 92.052"/>
</g>
<line stroke-width="0.13" x1="31.809" y1="91.983" x2="31.989" y2="91.438"/>
<line stroke-width="0.25" x1="31.824" y1="92.052" x2="31.879" y2="92.036"/>
<g>
 <path stroke-width="0.25" d="M32.212 92.263C32.189 92.192 32.155 92.144 32.122 92.129"/>
</g>
<line stroke-width="0.25" x1="32.122" y1="92.129" x2="31.899" y2="92.034"/>
<line stroke-width="0.25" x1="32.212" y1="92.263" x2="32.345" y2="92.689"/>
<line stroke-width="0.25" x1="31.739" y1="94.462" x2="32.345" y2="92.689"/>
<line stroke-width="0.13" x1="31.667" y1="95.662" x2="31.185" y2="95.456"/>
<g>
 <path stroke-width="0.13" d="M31.056 94.546C31.12 94.453 31.175 94.344 31.211 94.236"/>
</g>
<line stroke-width="0.13" x1="31.211" y1="94.236" x2="31.911" y2="92.191"/>
<g>
 <path stroke-width="0.13" d="M30.589 95.332C30.632 95.281 30.669 95.218 30.692 95.159"/>
</g>
<line stroke-width="0.13" x1="30.307" y1="95.671" x2="30.589" y2="95.332"/>
<g>
 <path stroke-width="0.13" d="M30.818 94.879C30.791 94.918 30.768 94.962 30.753 95.003"/>
</g>
<line stroke-width="0.13" x1="30.818" y1="94.879" x2="31.056" y2="94.546"/>
<line stroke-width="0.13" x1="30.753" y1="95.003" x2="30.692" y2="95.159"/>
<g>
 <polyline stroke-width="0.13" points="30.307 95.671 30.003 95.885 29.446 96.063"/>
 <polyline stroke-width="0.25" points="29.446 96.063 29.454 95.968"/>
</g>
<g>
 <path stroke-width="0.25" d="M29.657 95.362C29.673 95.313 29.67 95.272 29.649 95.265"/>
 <path stroke-width="0.13" d="M29.649 95.265C29.646 95.263 29.64 95.263 29.635 95.265"/>
</g>
<line stroke-width="0.13" x1="29.521" y1="95.302" x2="29.635" y2="95.265"/>
<line stroke-width="0.25" x1="29.454" y1="95.968" x2="29.657" y2="95.362"/>
<g>
 <path stroke-width="0.25" d="M31.583 94.771C31.649 94.679 31.704 94.569 31.739 94.462"/>
</g>
<g>
 <path stroke-width="0.25" d="M31.117 95.558C31.161 95.506 31.196 95.444 31.219 95.384"/>
</g>
<line stroke-width="0.25" x1="30.835" y1="95.897" x2="31.117" y2="95.558"/>
<g>
 <path stroke-width="0.25" d="M31.347 95.105C31.32 95.144 31.297 95.186 31.28 95.227"/>
</g>
<line stroke-width="0.25" x1="31.347" y1="95.105" x2="31.585" y2="94.771"/>
<line stroke-width="0.25" x1="31.28" y1="95.227" x2="31.219" y2="95.384"/>
<polyline stroke-width="0.25" points="30.835 95.897 30.532 96.109 29.975 96.289 29.446 96.063"/>
<line stroke-width="0.25" x1="29.521" y1="95.302" x2="29.658" y2="94.89"/>
<line stroke-width="0.25" x1="29.658" y1="95.361" x2="29.521" y2="95.302"/>
<g>
 <polyline stroke-width="0.25" points="31.667 95.662 32.744 92.513"/>
 <polyline stroke-width="0.13" points="32.744 92.513 32.295 92.322"/>
</g>
<polyline stroke-width="0.25" points="32.744 92.513 32.703 92.243 32.64 92.075 32.409 91.977"/>
<polyline stroke-width="0.25" points="31.667 95.662 31.535 95.832 31.301 96.045 31.117 96.138 30.727 95.972"/>
<line stroke-width="0.13" x1="31.28" y1="95.227" x2="30.753" y2="95.003"/>
<g>
 <path stroke-width="0.13" d="M33.86 96.59C34.899 96.906 35.332 96.343 34.875 95.314"/>
</g>
<line stroke-width="0.13" x1="32.218" y1="96.088" x2="33.86" y2="96.59"/>
<g>
 <path stroke-width="0.13" d="M34.505 94.483C34.363 94.168 34.167 93.887 33.966 93.694"/>
</g>
<line stroke-width="0.13" x1="32.744" y1="92.513" x2="33.966" y2="93.694"/>
<line stroke-width="0.13" x1="34.505" y1="94.483" x2="34.875" y2="95.314"/>
<polyline stroke-width="0.25" points="32.64 92.075 34.515 93.703 36.466 96.105"/>
<line stroke-width="0.13" x1="31.667" y1="95.662" x2="32.218" y2="96.088"/>
<polyline stroke-width="0.25" points="31.117 96.138 31.881 96.823 34.526 98.352"/>
<g>
 <path stroke-width="0.25" d="M34.526 98.352C34.539 98.364 34.558 98.367 34.581 98.364"/>
 <path stroke-width="0.25" d="M36.484 96.158C36.484 96.132 36.478 96.114 36.466 96.105"/>
 <path stroke-width="0.13" d="M36.466 96.105C36.357 96.012 35.835 96.439 35.301 97.061C34.765 97.68 34.417 98.26 34.526 98.352"/>
</g>
<g>
 <path stroke-width="0.13" d="M36.473 96.433C36.384 96.356 35.948 96.713 35.5 97.233C35.052 97.751 34.762 98.234 34.853 98.311"/>
</g>
<line stroke-width="0.25" x1="34.868" y1="98.325" x2="34.582" y2="98.364"/>
<line stroke-width="0.25" x1="36.484" y1="96.158" x2="36.488" y2="96.447"/>
<line stroke-width="0.25" x1="36.473" y1="96.433" x2="36.651" y2="96.587"/>
<line stroke-width="0.25" x1="34.853" y1="98.311" x2="35.03" y2="98.465"/>
<line stroke-width="0.25" x1="35.319" y1="98.713" x2="35.511" y2="98.879"/>
<g>
 <path stroke-width="0.25" d="M36.868 96.525C36.765 96.435 36.262 96.846 35.746 97.444C35.229 98.043 34.896 98.599 35 98.689"/>
</g>
<g>
 <path stroke-width="0.25" d="M35.149 98.819C35.182 98.847 35.262 98.822 35.366 98.756"/>
 <path stroke-width="0.25" d="M36.987 96.878C37.042 96.753 37.049 96.679 37.018 96.653"/>
</g>
<g>
 <path stroke-width="0.13" d="M36.939 96.835C36.848 96.759 36.414 97.115 35.966 97.635C35.518 98.153 35.228 98.637 35.319 98.713"/>
</g>
<line stroke-width="0.25" x1="36.868" y1="96.525" x2="37.018" y2="96.653"/>
<line stroke-width="0.25" x1="35.149" y1="98.817" x2="35" y2="98.689"/>
<g>
 <path stroke-width="0.25" d="M37.348 96.938C37.244 96.849 36.743 97.262 36.226 97.859C35.71 98.456 35.375 99.015 35.479 99.103"/>
</g>
<g>
 <path stroke-width="0.25" d="M35.628 99.233C35.664 99.263 35.741 99.236 35.847 99.17"/>
 <path stroke-width="0.25" d="M37.466 97.292C37.523 97.168 37.53 97.093 37.497 97.067"/>
</g>
<line stroke-width="0.25" x1="37.348" y1="96.938" x2="37.497" y2="97.067"/>
<line stroke-width="0.25" x1="35.628" y1="99.233" x2="35.479" y2="99.103"/>
<g>
 <path stroke-width="0.25" d="M37.829 97.352C37.725 97.263 37.222 97.676 36.707 98.274C36.191 98.871 35.856 99.429 35.96 99.519"/>
</g>
<g>
 <path stroke-width="0.25" d="M36.109 99.647C36.143 99.677 36.222 99.652 36.326 99.584"/>
 <path stroke-width="0.25" d="M37.948 97.706C38.003 97.581 38.009 97.507 37.978 97.481"/>
</g>
<line stroke-width="0.25" x1="37.829" y1="97.353" x2="37.978" y2="97.481"/>
<line stroke-width="0.25" x1="36.109" y1="99.647" x2="35.96" y2="99.519"/>
<g>
 <path stroke-width="0.13" d="M38.128 97.862C38.039 97.784 37.603 98.143 37.155 98.661C36.707 99.18 36.418 99.662 36.509 99.74"/>
</g>
<g>
 <path stroke-width="0.13" d="M38.765 98.087C38.658 97.993 38.134 98.421 37.598 99.043C37.061 99.665 36.715 100.245 36.823 100.337"/>
 <path stroke-width="0.25" d="M36.823 100.337C36.835 100.347 36.85 100.352 36.869 100.349"/>
 <path stroke-width="0.25" d="M38.784 98.132C38.783 98.109 38.776 98.094 38.765 98.087"/>
</g>
<g>
 <path stroke-width="0.13" d="M38.789 98.37C38.695 98.29 38.243 98.662 37.779 99.2C37.314 99.736 37.014 100.239 37.107 100.319"/>
 <path stroke-width="0.25" d="M37.107 100.319C37.173 100.376 37.42 100.206 37.728 99.906"/>
 <path stroke-width="0.25" d="M38.466 99.052C38.735 98.682 38.85 98.429 38.789 98.37"/>
</g>
<line stroke-width="0.25" x1="37.149" y1="100.329" x2="36.869" y2="100.349"/>
<line stroke-width="0.25" x1="36.823" y1="100.337" x2="36.54" y2="100.094"/>
<line stroke-width="0.25" x1="36.521" y1="100.046" x2="36.509" y2="99.74"/>
<line stroke-width="0.25" x1="38.484" y1="97.843" x2="38.765" y2="98.087"/>
<line stroke-width="0.25" x1="38.432" y1="97.831" x2="38.128" y2="97.862"/>
<line stroke-width="0.25" x1="38.805" y1="98.411" x2="38.784" y2="98.132"/>
<g>
 <path stroke-width="0.13" d="M38.368 98.963C38.329 98.927 38.128 99.087 37.92 99.319C37.712 99.552 37.576 99.769 37.615 99.805"/>
</g>
<line stroke-width="0.25" x1="36.939" y1="96.835" x2="37.131" y2="97.001"/>
<line stroke-width="0.25" x1="35.798" y1="99.129" x2="35.99" y2="99.293"/>
<g>
 <path stroke-width="0.13" d="M37.42 97.251C37.329 97.173 36.893 97.53 36.445 98.049C35.999 98.567 35.709 99.051 35.798 99.129"/>
</g>
<line stroke-width="0.25" x1="37.42" y1="97.251" x2="37.612" y2="97.415"/>
<line stroke-width="0.25" x1="36.279" y1="99.543" x2="36.509" y2="99.74"/>
<g>
 <path stroke-width="0.13" d="M37.899 97.665C37.81 97.587 37.374 97.944 36.926 98.463C36.478 98.981 36.189 99.465 36.279 99.543"/>
</g>
<line stroke-width="0.25" x1="37.899" y1="97.665" x2="38.128" y2="97.862"/>
<g>
 <path stroke-width="0.25" d="M38.484 97.843C38.472 97.832 38.454 97.828 38.432 97.831"/>
 <path stroke-width="0.25" d="M36.521 100.046C36.523 100.069 36.53 100.085 36.54 100.094"/>
</g>
<g>
 <path stroke-width="0.13" d="M38.432 97.831C38.253 97.849 37.78 98.263 37.317 98.801C36.843 99.349 36.515 99.867 36.521 100.046"/>
</g>
<g>
 <path stroke-width="0.13" d="M43.051 103.15C43.009 103.114 42.808 103.274 42.6 103.507C42.393 103.739 42.256 103.956 42.298 103.992"/>
 <path stroke-width="0.25" d="M42.298 103.992C42.338 104.028 42.539 103.87 42.746 103.638C42.954 103.405 43.091 103.186 43.051 103.15"/>
</g>
<line stroke-width="0.25" x1="43.051" y1="103.15" x2="38.368" y2="98.963"/>
<line stroke-width="0.25" x1="37.615" y1="99.805" x2="42.298" y2="103.992"/>
<path stroke-width="0.13" d="M31.881 96.823C31.867 96.668 31.954 96.439 32.218 96.088"/>
<path stroke-width="0.13" d="M34.515 93.703C34.435 93.719 34.298 93.789 34.149 93.894"/>
<line stroke-width="0.25" x1="29.14" y1="94.513" x2="28.995" y2="94.45"/>
<g>
 <path stroke-width="0.25" d="M118.62 101.07C118.602 101.248 118.602 101.412 118.617 101.551"/>
</g>
<g>
 <path stroke-width="0.13" d="M118.21 100.834C118.192 101.012 118.192 101.177 118.209 101.314"/>
</g>
<g>
 <path stroke-width="0.25" d="M118.243 96.076C117.54 95.67 116.397 96.328 115.691 97.549C114.987 98.769 114.986 100.087 115.691 100.495"/>
</g>
<line stroke-width="0.13" x1="119.593" y1="97.712" x2="120.623" y2="98.302"/>
<line stroke-width="0.13" x1="119.593" y1="97.959" x2="120.623" y2="98.558"/>
<line stroke-width="0.25" x1="121.04" y1="98.317" x2="121.04" y2="98.069"/>
<line stroke-width="0.25" x1="119.593" y1="97.712" x2="120.001" y2="97.471"/>
<line stroke-width="0.25" x1="119.593" y1="97.959" x2="119.593" y2="97.712"/>
<line stroke-width="0.13" x1="120.623" y1="98.558" x2="120.623" y2="98.302"/>
<line stroke-width="0.25" x1="118.21" y1="100.834" x2="118.62" y2="101.07"/>
<line stroke-width="0.25" x1="121.528" y1="98.917" x2="121.944" y2="99.158"/>
<line stroke-width="0.13" x1="120.623" y1="98.302" x2="121.04" y2="98.069"/>
<line stroke-width="0.25" x1="120.001" y1="97.471" x2="121.04" y2="98.069"/>
<line stroke-width="0.25" x1="115.691" y1="100.495" x2="119.543" y2="102.718"/>
<line stroke-width="0.25" x1="118.245" y1="96.075" x2="122.096" y2="98.298"/>
<line stroke-width="0.25" x1="112.316" y1="98.025" x2="115.192" y2="99.686"/>
<line stroke-width="0.25" x1="114.417" y1="94.388" x2="117.295" y2="96.049"/>
<line stroke-width="0.25" x1="111.74" y1="97.028" x2="111.983" y2="97.631"/>
<line stroke-width="0.25" x1="113.281" y1="94.358" x2="113.908" y2="94.296"/>
<line stroke-width="0.25" x1="109.668" y1="96.028" x2="111.844" y2="97.286"/>
<line stroke-width="0.25" x1="111.346" y1="93.123" x2="113.456" y2="94.341"/>
<line stroke-width="0.25" x1="121.799" y1="99.237" x2="121.953" y2="99.325"/>
<line stroke-width="0.13" x1="118.209" y1="101.314" x2="118.617" y2="101.551"/>
<line stroke-width="0.25" x1="121.799" y1="99.237" x2="121.807" y2="99.078"/>
<line stroke-width="0.13" x1="121.528" y1="99.391" x2="121.799" y2="99.237"/>
<line stroke-width="0.13" x1="118.209" y1="101.314" x2="118.478" y2="101.159"/>
<line stroke-width="0.13" x1="121.528" y1="99.391" x2="121.944" y2="99.632"/>
<g>
 <path stroke-width="0.13" d="M122.096 98.299C121.799 98.126 121.423 98.144 121.04 98.313"/>
 <path stroke-width="0.13" d="M120.623 98.551C120.197 98.85 119.822 99.289 119.545 99.771C118.84 100.99 118.84 102.31 119.543 102.716"/>
 <path stroke-width="0.25" d="M119.543 102.716C120.248 103.123 121.391 102.463 122.096 101.245C122.801 100.025 122.801 98.706 122.096 98.299"/>
</g>
<line stroke-width="0.13" x1="118.478" y1="101.159" x2="118.608" y2="101.233"/>
<g>
 <path stroke-width="0.13" d="M118.465 100.981C118.466 101.046 118.471 101.108 118.477 101.159"/>
</g>
<g>
 <path stroke-width="0.25" d="M121.909 98.621C121.308 98.275 120.332 98.837 119.731 99.879C119.131 100.921 119.131 102.046 119.731 102.393"/>
 <path stroke-width="0.13" d="M119.731 102.393C120.332 102.739 121.308 102.177 121.909 101.135C122.51 100.094 122.51 98.968 121.909 98.621"/>
</g>
<g>
 <path stroke-width="0.13" d="M119.403 102.019C119.993 101.965 120.653 101.415 121.09 100.664C121.545 99.878 121.656 99.043 121.42 98.524"/>
</g>
<g>
 <path stroke-width="0.25" d="M121.945 99.632C121.965 99.456 121.965 99.293 121.947 99.159"/>
</g>
<g>
 <path stroke-width="0.13" d="M114.417 94.387C113.837 94.052 112.896 94.596 112.316 95.599C111.736 96.605 111.736 97.691 112.316 98.025"/>
</g>
<g>
 <path stroke-width="0.13" d="M111.346 93.123C110.882 92.855 110.131 93.289 109.668 94.091C109.204 94.894 109.204 95.762 109.668 96.03"/>
</g>
<line stroke-width="0.25" x1="108.938" y1="92.814" x2="107.329" y2="91.885"/>
<line stroke-width="0.25" x1="108.204" y1="94.102" x2="106.588" y2="93.17"/>
<g>
 <path stroke-width="0.25" d="M110.626 92.204C110.042 91.867 109.096 92.414 108.513 93.424C107.929 94.436 107.929 95.528 108.513 95.864"/>
</g>
<line stroke-width="0.25" x1="110.626" y1="92.204" x2="111.004" y2="92.423"/>
<line stroke-width="0.25" x1="108.513" y1="95.864" x2="108.891" y2="96.082"/>
<g>
 <path stroke-width="0.13" d="M111.004 92.423C110.42 92.085 109.474 92.632 108.891 93.643C108.307 94.653 108.307 95.746 108.891 96.082"/>
 <path stroke-width="0.25" d="M108.891 96.082C109.134 96.224 109.438 96.21 109.751 96.076"/>
 <path stroke-width="0.25" d="M111.429 93.171C111.382 92.804 111.227 92.549 111.004 92.423"/>
</g>
<g>
 <path stroke-width="0.13" d="M113.281 94.358C112.831 94.421 112.34 94.841 112.012 95.405C111.671 95.995 111.579 96.621 111.74 97.027"/>
</g>
<g>
 <path stroke-width="0.25" d="M114.417 94.387C114.263 94.299 114.087 94.272 113.908 94.296"/>
 <path stroke-width="0.25" d="M111.983 97.631C112.061 97.816 112.179 97.95 112.316 98.025"/>
</g>
<text transform="matrix(0 -1 1 0 176.05 252.038)" stroke="none" fill="#000000" font-family="'Helvetica'" font-size="2.822">140342</text>
 <path id="AUTOID_20142049" class="hotspot hotspot_1" itedo:apsattr="region" fill="black" stroke="black" visibility="hidden" pointer-events="all" d="M76.346 56.241C78.004 56.241 79.346 54.899 79.346 53.241C79.346 51.585 78.004 50.241 76.346 50.241C74.689 50.241 73.346 51.585 73.346 53.241C73.346 54.899 74.689 56.241 76.346 56.241"/>
</svg>
